# xmcd CD database file
# 
# Track frame offsets:
# 	150
# 	14961
# 	29954
# 	44230
# 	54740
# 	66883
# 	83537
# 	100518
# 	113949
# 	127527
# 	137282
# 	151549
# 	169521
# 	181974
# 
# Disc length: 2608 seconds
# 
# Submitted via: Nero 6, 6, 1, 15
# 
# Revision: 0
# Processed by: cddbd v1.5.2PL0 Copyright (c) Steve Scherf et al.
#
DISCID=b20a2e0e
DTITLE=Kasey Chambers and Shane Nicholson - Rattlin' Bones
DYEAR=1900
DGENRE=
TTITLE0=Rattlin' Bones
TTITLE1=Once in a while
TTITLE2=Sweetest waste of tine
TTITLE3=Monkey on a wire
TTITLE4=One more year
TTITLE5=The house that never was
TTITLE6=Wildflower
TTITLE7=No one hurts up there
TTITLE8=The Devil's inside my head
TTITLE9=Sleeping cold
TTITLE10=Adeline
TTITLE11=Jackson Hole
TTITLE12=Your Day will come
TTITLE13=Woe is mine
EXTD=
EXTT0=
EXTT1=
EXTT2=
EXTT3=
EXTT4=
EXTT5=
EXTT6=
EXTT7=
EXTT8=
EXTT9=
EXTT10=
EXTT11=
EXTT12=
EXTT13=
PLAYORDER=
